<?xml version="1.0" encoding="UTF-8"?>
<svg width="46px" height="31px" viewBox="0 0 46 31" version="1.1" xmlns="http://www.w3.org/2000/svg" xmlns:xlink="http://www.w3.org/1999/xlink">
    <!-- Generator: Sketch 41.2 (35397) - http://www.bohemiancoding.com/sketch -->
    <title>Cube</title>
    <desc>Created with Sketch.</desc>
    <defs></defs>
    <g id="Page-1" stroke="none" stroke-width="1" fill="none" fill-rule="evenodd">
        <g id="Cube">
            <g id="Layer_1">
                <polygon id="Shape" fill="#414142" points="45.2092241 0.799051724 34.4340517 2.64568966 38.0124138 4.54043103 27.4189655 11.1493103 28.0924138 12.2289655 38.6858621 5.62008621 38.8114655 9.66344828"></polygon>
                <polygon id="Shape" fill="#EC4B25" points="11.0317241 22.3440517 11.0718103 7.5362069 23.9581897 14.9762069 23.9581897 29.7813793"></polygon>
                <g id="Group" opacity="0.55" transform="translate(18.439655, 11.758621)" fill="#F69321">
                    <path id="Shape"></path>
                    <path d="M5.51853448,11.2936207 L5.51853448,3.21758621 L0.13362069,0.106896552 C3.06735932,3.17187483 4.95281518,7.08875733 5.51853448,11.2936207 L5.51853448,11.2936207 Z" id="Shape"></path>
                </g>
                <polyline id="Shape" fill="#F59120" points="36.844569 7.5362069 23.9581897 0 11.0718103 7.5362069 23.9581897 14.9762069"></polyline>
                <path d="M11.4860345,11.4218966 C11.4857834,10.2621414 11.596751,9.10503477 11.8174138,7.96646552 L11.0611207,7.5362069 L11.0183621,22.3440517 L23.9448276,29.7813793 L23.9448276,28.5894828 C16.51268,26.1683627 11.4835369,19.238458 11.4860345,11.4218966 L11.4860345,11.4218966 Z" id="Shape" fill="#F04925" opacity="0.6" style="mix-blend-mode: multiply;"></path>
                <polygon id="Shape" fill="#F9AE41" points="23.9581897 29.7813793 23.9581897 14.9762069 36.844569 7.5362069 36.8846552 22.3440517"></polygon>
                <path d="M36.4303448,11.4218966 C36.4311677,10.2611011 36.3192923,9.10296744 36.0962931,7.9637931 L36.8418966,7.53353448 L36.8819828,22.3413793 L23.9581897,29.7813793 L23.9581897,28.5894828 C31.3956206,26.173044 36.4309603,19.2420343 36.4303448,11.4218966 Z" id="Shape" fill="#FAD196" opacity="0.4"></path>
                <path d="M29.4312931,3.19887931 C29.4963437,3.69150789 29.5293728,4.18783711 29.5301724,4.68474138 C29.5320212,8.89024343 27.1920667,12.7468923 23.4611207,14.6875862 L23.9581897,14.9735345 L36.844569,7.53353448 L29.4312931,3.19887931 Z" id="Shape" fill="#F7A74D" opacity="0.2"></path>
                <path d="M17.6619828,18.0174138 C17.5605281,17.8537518 17.3980739,17.7372307 17.2105243,17.6936029 C17.0229746,17.649975 16.8257719,17.6828326 16.6625,17.7849138 L11.5956034,20.9303448 L5.74568966,21.0105172 L0,24.5888793 L4.54310345,25.6578448 L11.0290517,21.6492241 L11.0290517,22.365431 L11.3256897,22.5364655 L5.01612069,26.4248276 L3.96051724,30.954569 L9.72491379,27.3762069 L12.3839655,22.165 L17.4294828,19.0035345 C17.7610277,18.7918763 17.8640582,18.3548849 17.6619828,18.0174138 L17.6619828,18.0174138 Z" id="Shape" fill="#414142"></path>
            </g>
        </g>
    </g>
</svg>