<svg xmlns="http://www.w3.org/2000/svg" xmlns:xlink="http://www.w3.org/1999/xlink" width="300" height="100" viewBox="0 0 300 100"><defs><style>.a{fill:#fff;}.b{clip-path:url(#a);}.c{opacity:0.5;isolation:isolate;}.d{fill:#807e7d;}.d,.e,.f,.g,.h,.i,.j{fill-rule:evenodd;}.e{fill:#f0f0f0;}.f{fill:#d9d9d9;}.g{fill:#e3e3e3;}.h{fill:#b1b0b0;}.i{fill:#c9c9c9;}.j{fill:#979695;}</style><clipPath id="a"><path class="a" d="M4,0H296a4,4,0,0,1,4,4v96a0,0,0,0,1,0,0H0a0,0,0,0,1,0,0V4A4,4,0,0,1,4,0Z"/></clipPath></defs><g class="b"><g class="c" transform="translate(-15.191 -19.554)"><path class="d" d="M588.79,578.319v22.866H594.3l.012-19.408a3.86,3.86,0,0,0-5.517-3.458ZM602,601.185h30.874v-2.367h0A10.054,10.054,0,0,0,627.7,589.9c-5.517-3.16-14.2-8.149-19.927-11.432a3.775,3.775,0,0,0-3.859,0,3.725,3.725,0,0,0-1.921,3.312Zm38.581,0h30.874l.012-19.408a3.723,3.723,0,0,0-1.921-3.312,3.775,3.775,0,0,0-3.859,0c-5.727,3.283-14.41,8.272-19.927,11.432a10.054,10.054,0,0,0-5.179,8.921h0Zm38.581,0h30.879v-2.367h0a10.054,10.054,0,0,0-5.179-8.921c-5.517-3.16-14.2-8.149-19.926-11.432a3.775,3.775,0,0,0-3.859,0,3.716,3.716,0,0,0-1.927,3.312Zm38.581,0h30.879l.012-19.408a3.717,3.717,0,0,0-1.926-3.312,3.775,3.775,0,0,0-3.859,0c-5.722,3.283-14.41,8.272-19.921,11.432a10.049,10.049,0,0,0-5.184,8.921h0Zm38.586,0H787.2v-2.367h0a10.054,10.054,0,0,0-5.179-8.921c-5.511-3.16-14.2-8.149-19.927-11.432a3.775,3.775,0,0,0-3.859,0,3.725,3.725,0,0,0-1.921,3.312Zm38.581,0h30.879l.006-19.408a3.723,3.723,0,0,0-1.921-3.312,3.775,3.775,0,0,0-3.859,0c-5.728,3.283-14.41,8.272-19.927,11.432a10.054,10.054,0,0,0-5.179,8.921h0Zm38.581,0H864.37v-2.367h0a10.054,10.054,0,0,0-5.179-8.921c-5.517-3.16-14.205-8.149-19.926-11.432a3.775,3.775,0,0,0-3.859,0,3.729,3.729,0,0,0-1.927,3.312Zm38.586,0H902.95l.012-19.408a3.716,3.716,0,0,0-1.927-3.312,3.764,3.764,0,0,0-3.853,0c-5.727,3.283-14.415,8.272-19.927,11.432a10.054,10.054,0,0,0-5.179,8.921h0Zm38.58,0h7.637V579.537l-1.869-1.073a3.775,3.775,0,0,0-3.859,0,3.722,3.722,0,0,0-1.921,3.312Z" transform="translate(-588.79 -391.674)"/><path class="e" d="M594.3,408.74v22.883a3.848,3.848,0,0,1-5.506,3.463V400.179h.917a10.022,10.022,0,0,1,4.589,8.561Z" transform="translate(-588.79 -400.179)"/><path class="e" d="M668.776,408.74v22.883a3.736,3.736,0,0,1-1.933,3.324,3.784,3.784,0,0,1-3.859-.006l-19.9-11.438a10.064,10.064,0,0,1-5.179-8.915l-.012-14.408h26.3a10.037,10.037,0,0,1,4.589,8.561Z" transform="translate(-586.103 -400.179)"/><path class="e" d="M601.317,408.74v22.883a3.742,3.742,0,0,0,1.927,3.324,3.784,3.784,0,0,0,3.859-.006L627.012,423.5a10.064,10.064,0,0,0,5.179-8.915l.006-14.408H605.906a10.037,10.037,0,0,0-4.589,8.561Z" transform="translate(-588.105 -400.179)"/><path class="e" d="M741.933,408.74v22.883a3.741,3.741,0,0,1-1.926,3.324,3.784,3.784,0,0,1-3.859-.006L716.238,423.5a10.068,10.068,0,0,1-5.179-8.915l-.005-14.408h26.29a10.022,10.022,0,0,1,4.589,8.561Z" transform="translate(-582.1 -400.179)"/><path class="e" d="M674.48,408.74v22.883a3.73,3.73,0,0,0,1.927,3.324,3.784,3.784,0,0,0,3.859-.006L700.175,423.5a10.064,10.064,0,0,0,5.179-8.915l.006-14.408H679.069a10.024,10.024,0,0,0-4.589,8.561Z" transform="translate(-584.101 -400.179)"/><path class="e" d="M815.1,408.74h0v22.883a3.735,3.735,0,0,1-1.932,3.324,3.773,3.773,0,0,1-3.853-.006L789.4,423.5a10.064,10.064,0,0,1-5.179-8.915l-.013-14.408h26.3a10.036,10.036,0,0,1,4.588,8.561Z" transform="translate(-578.097 -400.179)"/><path class="e" d="M747.638,408.74v22.883a3.74,3.74,0,0,0,1.927,3.324,3.784,3.784,0,0,0,3.859-.006L773.333,423.5a10.064,10.064,0,0,0,5.179-8.915l.012-14.408h-26.3a10.037,10.037,0,0,0-4.589,8.561Z" transform="translate(-580.098 -400.179)"/><path class="e" d="M888.254,408.74h0v22.883a3.74,3.74,0,0,1-1.927,3.324,3.784,3.784,0,0,1-3.859-.006L862.559,423.5a10.068,10.068,0,0,1-5.179-8.915l-.005-14.408h26.29a10.022,10.022,0,0,1,4.589,8.561Z" transform="translate(-574.094 -400.179)"/><path class="e" d="M820.8,408.74h0v22.883a3.742,3.742,0,0,0,1.927,3.324,3.784,3.784,0,0,0,3.859-.006L846.5,423.5a10.064,10.064,0,0,0,5.179-8.915l.006-14.408H825.39a10.022,10.022,0,0,0-4.589,8.561Z" transform="translate(-576.095 -400.179)"/><path class="e" d="M893.959,408.74h0v22.883a3.735,3.735,0,0,0,1.932,3.324,3.775,3.775,0,0,0,3.854-.006l1.851-1.061v-33.7h-3.048a10.037,10.037,0,0,0-4.589,8.561Z" transform="translate(-572.092 -400.179)"/><path class="f" d="M588.79,487.721l.322-.185a10.069,10.069,0,0,0,5.184-8.91l.012-22.894a3.86,3.86,0,0,0-5.517-3.457Z" transform="translate(-588.79 -397.705)"/><path class="f" d="M632.191,472.774h0v22.883a3.732,3.732,0,0,1-1.927,3.323,3.787,3.787,0,0,1-3.859-.005L606.5,487.536a10.067,10.067,0,0,1-5.179-8.91l-.012-22.894a3.723,3.723,0,0,1,1.921-3.311,3.77,3.77,0,0,1,3.859,0c5.728,3.283,14.41,8.271,19.927,11.432a10.054,10.054,0,0,1,5.179,8.921Z" transform="translate(-588.105 -397.705)"/><path class="f" d="M637.9,472.774h0v22.883a3.732,3.732,0,0,0,1.927,3.323,3.787,3.787,0,0,0,3.859-.005l19.909-11.438a10.063,10.063,0,0,0,5.179-8.91l.012-22.894a3.721,3.721,0,0,0-1.921-3.311,3.77,3.77,0,0,0-3.859,0c-5.727,3.283-14.41,8.271-19.927,11.432a10.054,10.054,0,0,0-5.179,8.921Z" transform="translate(-586.103 -397.705)"/><path class="f" d="M705.355,472.774h0v22.883a3.726,3.726,0,0,1-1.932,3.323,3.787,3.787,0,0,1-3.859-.005l-19.9-11.438a10.066,10.066,0,0,1-5.18-8.91l-.017-22.894a3.714,3.714,0,0,1,1.927-3.311,3.77,3.77,0,0,1,3.859,0c5.721,3.283,14.409,8.271,19.926,11.432a10.054,10.054,0,0,1,5.179,8.921Z" transform="translate(-584.102 -397.705)"/><path class="f" d="M711.054,472.774h0v22.883a3.726,3.726,0,0,0,1.932,3.323,3.787,3.787,0,0,0,3.859-.005l19.9-11.438a10.057,10.057,0,0,0,5.184-8.91l.012-22.894a3.715,3.715,0,0,0-1.926-3.311,3.77,3.77,0,0,0-3.859,0c-5.722,3.283-14.41,8.271-19.922,11.432a10.048,10.048,0,0,0-5.184,8.921Z" transform="translate(-582.1 -397.705)"/><path class="f" d="M778.512,472.774h0v22.883a3.732,3.732,0,0,1-1.927,3.323,3.787,3.787,0,0,1-3.859-.005l-19.909-11.438a10.067,10.067,0,0,1-5.179-8.91l-.012-22.894a3.723,3.723,0,0,1,1.921-3.311,3.77,3.77,0,0,1,3.859,0c5.728,3.283,14.416,8.271,19.927,11.432a10.054,10.054,0,0,1,5.179,8.921Z" transform="translate(-580.099 -397.705)"/><path class="f" d="M784.217,472.774h0v22.883a3.732,3.732,0,0,0,1.927,3.323,3.787,3.787,0,0,0,3.859-.005l19.909-11.438a10.067,10.067,0,0,0,5.179-8.91l.012-22.894a3.721,3.721,0,0,0-1.921-3.311,3.77,3.77,0,0,0-3.859,0c-5.728,3.283-14.41,8.271-19.927,11.432a10.054,10.054,0,0,0-5.179,8.921Z" transform="translate(-578.097 -397.705)"/><path class="f" d="M851.676,472.774h0v22.883a3.726,3.726,0,0,1-1.932,3.323,3.787,3.787,0,0,1-3.859-.005l-19.9-11.438a10.067,10.067,0,0,1-5.179-8.91l-.017-22.894a3.727,3.727,0,0,1,1.927-3.311,3.77,3.77,0,0,1,3.859,0c5.721,3.283,14.409,8.271,19.926,11.432a10.054,10.054,0,0,1,5.179,8.921Z" transform="translate(-576.096 -397.705)"/><path class="f" d="M857.38,472.774h0v22.883a3.732,3.732,0,0,0,1.927,3.323,3.787,3.787,0,0,0,3.859-.005l19.909-11.438a10.062,10.062,0,0,0,5.179-8.91l.012-22.894a3.714,3.714,0,0,0-1.927-3.311,3.759,3.759,0,0,0-3.853,0c-5.727,3.283-14.415,8.271-19.927,11.432a10.054,10.054,0,0,0-5.179,8.921Z" transform="translate(-574.093 -397.705)"/><path class="f" d="M901.6,488.95l-2.459-1.415a10.067,10.067,0,0,1-5.179-8.91l-.012-22.894a3.721,3.721,0,0,1,1.921-3.311,3.77,3.77,0,0,1,3.859,0l1.869,1.073Z" transform="translate(-572.092 -397.705)"/><path class="g" d="M660.751,440.3h0l-19.932-11.438a10.142,10.142,0,0,0-10.375,0L610.518,440.3a3.815,3.815,0,0,0,0,6.63L630.45,458.37a10.2,10.2,0,0,0,10.375,0c5.932-3.4,14.362-8.242,19.926-11.445a3.82,3.82,0,0,0,0-6.63Z" transform="translate(-587.706 -398.875)"/><path class="g" d="M733.915,440.3h0l-19.933-11.438a10.152,10.152,0,0,0-10.38,0L683.675,440.3a3.821,3.821,0,0,0,0,6.63l19.933,11.445a10.2,10.2,0,0,0,10.381,0c5.932-3.4,14.362-8.242,19.927-11.445a3.821,3.821,0,0,0,0-6.63Z" transform="translate(-583.703 -398.875)"/><path class="g" d="M807.072,440.3h0L787.14,428.857a10.142,10.142,0,0,0-10.375,0L756.839,440.3a3.815,3.815,0,0,0,0,6.63l19.932,11.445a10.2,10.2,0,0,0,10.375,0c5.932-3.4,14.362-8.242,19.926-11.445a3.815,3.815,0,0,0,0-6.63Z" transform="translate(-579.7 -398.875)"/><path class="g" d="M880.236,440.3h0L860.3,428.857a10.151,10.151,0,0,0-10.38,0L830,440.3a3.821,3.821,0,0,0,0,6.63l19.933,11.445a10.2,10.2,0,0,0,10.381,0c5.932-3.4,14.362-8.242,19.927-11.445a3.821,3.821,0,0,0,0-6.63Z" transform="translate(-575.697 -398.875)"/><path class="h" d="M594.3,535.69h0v22.882a3.848,3.848,0,0,1-5.506,3.463V526.577l.327.186a10.054,10.054,0,0,1,5.179,8.927Z" transform="translate(-588.79 -394.132)"/><path class="h" d="M668.777,536.228h0V559.11a3.853,3.853,0,0,1-5.793,3.312l-19.9-11.438a10.061,10.061,0,0,1-5.179-8.909l-.018-22.889a3.72,3.72,0,0,1,1.927-3.318,3.775,3.775,0,0,1,3.859,0c5.722,3.283,14.409,8.272,19.927,11.433a10.054,10.054,0,0,1,5.179,8.927Z" transform="translate(-586.104 -394.669)"/><path class="h" d="M601.317,536.228h0V559.11a3.847,3.847,0,0,0,5.786,3.312l19.909-11.438a10.061,10.061,0,0,0,5.179-8.909l.012-22.889a3.725,3.725,0,0,0-1.921-3.318,3.775,3.775,0,0,0-3.859,0c-5.727,3.283-14.409,8.272-19.927,11.433a10.054,10.054,0,0,0-5.179,8.927Z" transform="translate(-588.105 -394.669)"/><path class="h" d="M741.933,536.228h0V559.11a3.846,3.846,0,0,1-5.785,3.312l-19.91-11.438a10.066,10.066,0,0,1-5.179-8.909l-.012-22.889a3.729,3.729,0,0,1,1.921-3.318,3.775,3.775,0,0,1,3.859,0c5.728,3.283,14.416,8.272,19.927,11.433a10.054,10.054,0,0,1,5.179,8.927Z" transform="translate(-582.1 -394.669)"/><path class="h" d="M674.48,536.228h0V559.11a3.847,3.847,0,0,0,5.786,3.312l19.909-11.438a10.061,10.061,0,0,0,5.179-8.909l.012-22.889a3.719,3.719,0,0,0-1.926-3.318,3.765,3.765,0,0,0-3.854,0c-5.727,3.283-14.415,8.272-19.926,11.433a10.042,10.042,0,0,0-5.18,8.927Z" transform="translate(-584.101 -394.669)"/><path class="h" d="M815.1,536.228h0V559.11a3.849,3.849,0,0,1-5.785,3.312L789.4,550.984a10.061,10.061,0,0,1-5.179-8.909l-.013-22.889a3.716,3.716,0,0,1,1.922-3.318,3.775,3.775,0,0,1,3.859,0c5.727,3.283,14.409,8.272,19.926,11.433a10.054,10.054,0,0,1,5.179,8.927Z" transform="translate(-578.097 -394.669)"/><path class="h" d="M747.638,536.228h0V559.11a3.847,3.847,0,0,0,5.786,3.312l19.909-11.438a10.061,10.061,0,0,0,5.179-8.909l.012-22.889a3.725,3.725,0,0,0-1.921-3.318,3.775,3.775,0,0,0-3.859,0c-5.727,3.283-14.41,8.272-19.927,11.433a10.054,10.054,0,0,0-5.179,8.927Z" transform="translate(-580.098 -394.669)"/><path class="h" d="M888.254,536.228h0V559.11a3.847,3.847,0,0,1-5.786,3.312l-19.909-11.438a10.065,10.065,0,0,1-5.179-8.909l-.012-22.889a3.727,3.727,0,0,1,1.921-3.318,3.775,3.775,0,0,1,3.859,0c5.728,3.283,14.416,8.272,19.927,11.433a10.054,10.054,0,0,1,5.179,8.927Z" transform="translate(-574.094 -394.669)"/><path class="h" d="M820.8,536.228h0V559.11a3.847,3.847,0,0,0,5.786,3.312L846.5,550.984a10.061,10.061,0,0,0,5.179-8.909l.011-22.889a3.725,3.725,0,0,0-1.921-3.318,3.775,3.775,0,0,0-3.859,0c-5.727,3.283-14.415,8.272-19.927,11.433a10.054,10.054,0,0,0-5.179,8.927Z" transform="translate(-576.095 -394.669)"/><path class="h" d="M893.959,535.746h0v22.882a3.849,3.849,0,0,0,5.786,3.312l1.851-1.061v-35.47l-2.459,1.41a10.054,10.054,0,0,0-5.179,8.927Z" transform="translate(-572.092 -394.187)"/><path class="i" d="M623.255,503.744h0L603.322,492.3a10.178,10.178,0,0,0-10.374,0l-4.158,2.385v24.744l4.163,2.39a10.22,10.22,0,0,0,10.375,0c5.932-3.411,14.362-8.249,19.927-11.45a3.816,3.816,0,0,0,0-6.63Z" transform="translate(-588.79 -395.839)"/><path class="i" d="M697.336,503.744h0L677.4,492.3a10.192,10.192,0,0,0-10.382,0L647.1,503.744a3.82,3.82,0,0,0,0,6.63l19.932,11.45a10.229,10.229,0,0,0,10.38,0c5.932-3.411,14.362-8.249,19.927-11.45a3.821,3.821,0,0,0,0-6.63Z" transform="translate(-585.705 -395.839)"/><path class="i" d="M770.494,503.744h0L750.561,492.3a10.178,10.178,0,0,0-10.374,0L720.26,503.744a3.815,3.815,0,0,0,0,6.63l19.932,11.45a10.22,10.22,0,0,0,10.375,0c5.932-3.411,14.362-8.249,19.927-11.45a3.816,3.816,0,0,0,0-6.63Z" transform="translate(-581.702 -395.839)"/><path class="i" d="M843.657,503.744h0L823.724,492.3a10.19,10.19,0,0,0-10.38,0l-19.927,11.439a3.821,3.821,0,0,0,0,6.63l19.933,11.45a10.229,10.229,0,0,0,10.38,0c5.932-3.411,14.362-8.249,19.927-11.45a3.821,3.821,0,0,0,0-6.63Z" transform="translate(-577.698 -395.839)"/><path class="i" d="M903.2,495.93l-6.318-3.626a10.18,10.18,0,0,0-10.375,0l-19.926,11.439a3.82,3.82,0,0,0,0,6.63l19.932,11.45a10.229,10.229,0,0,0,10.381,0c1.9-1.1,4.064-2.338,6.306-3.626Z" transform="translate(-573.695 -395.839)"/><path class="j" d="M660.751,567.22h0l-19.932-11.439a10.171,10.171,0,0,0-10.375,0L610.518,567.22a3.729,3.729,0,0,0-1.927,3.318h0a3.73,3.73,0,0,0,1.927,3.312l19.932,11.443a10.171,10.171,0,0,0,10.375,0c5.932-3.4,14.362-8.242,19.926-11.443a3.725,3.725,0,0,0,1.922-3.312h0a3.737,3.737,0,0,0-1.922-3.318Z" transform="translate(-587.706 -392.802)"/><path class="j" d="M733.915,567.22h0l-19.933-11.439a10.181,10.181,0,0,0-10.38,0L683.675,567.22a3.736,3.736,0,0,0-1.921,3.318h0a3.736,3.736,0,0,0,1.921,3.312l19.933,11.443a10.18,10.18,0,0,0,10.381,0c5.932-3.4,14.362-8.242,19.927-11.443a3.726,3.726,0,0,0,1.921-3.312h0a3.736,3.736,0,0,0-1.921-3.318Z" transform="translate(-583.703 -392.802)"/><path class="j" d="M807.072,567.22h0L787.14,555.781a10.171,10.171,0,0,0-10.375,0L756.839,567.22a3.729,3.729,0,0,0-1.927,3.318h0a3.742,3.742,0,0,0,1.927,3.312l19.932,11.443a10.171,10.171,0,0,0,10.375,0c5.932-3.4,14.362-8.242,19.926-11.443A3.719,3.719,0,0,0,809,570.538h0a3.729,3.729,0,0,0-1.927-3.318Z" transform="translate(-579.7 -392.802)"/><path class="j" d="M880.236,567.22h0L860.3,555.781a10.18,10.18,0,0,0-10.38,0L830,567.22a3.736,3.736,0,0,0-1.921,3.318h0A3.736,3.736,0,0,0,830,573.85l19.933,11.443a10.181,10.181,0,0,0,10.381,0c5.932-3.4,14.362-8.242,19.927-11.443a3.726,3.726,0,0,0,1.921-3.312h0a3.736,3.736,0,0,0-1.921-3.318Z" transform="translate(-575.697 -392.802)"/></g></g></svg>