<svg xmlns="http://www.w3.org/2000/svg" xmlns:xlink="http://www.w3.org/1999/xlink" width="43.851" height="43.855" viewBox="0 0 43.851 43.855">
<defs>
  <style>.tag-a{fill:none;}.tag-b{clip-path:url(#tag-a);}</style>
  <clipPath id="tag-a">
    <rect class="tag-a" width="43.851" height="43.855"/>
  </clipPath>
</defs>
  <g class="tag-b">
    <path d="M8488.5,247.681l-2.118,2.12a5.368,5.368,0,0,1-7.593,0l-13.333-13.332a5.375,5.375,0,0,1,0-7.594l19.785-19.785a5.394,5.394,0,0,1,3.835-1.571l13.518.01a5.132,5.132,0,0,1,5.121,5.116l.021,13.539a5.4,5.4,0,0,1-1.573,3.831l-1.948,1.95Zm14.323-17.11,1.948-1.95a3.417,3.417,0,0,0,1-2.429l-.021-13.544a3.162,3.162,0,0,0-3.153-3.15l-13.522-.01a3.352,3.352,0,0,0-2.436,1l-19.784,19.786a3.4,3.4,0,0,0,0,4.806l13.332,13.332a3.4,3.4,0,0,0,4.807,0l2.12-2.12Zm-5.462-8.262a4.433,4.433,0,1,1,4.434-4.433A4.44,4.44,0,0,1,8497.364,222.309Zm0-1.97a2.463,2.463,0,1,0-2.462-2.463A2.466,2.466,0,0,0,8497.364,220.339Z" transform="translate(-8463.889 -207.518)"/>
  </g>
</svg>
